<svg width="221" height="100" viewBox="0 0 221 100" fill="none" xmlns="http://www.w3.org/2000/svg">
<g clip-path="url(#clip0_226_38)">
<mask id="mask0_226_38" style="mask-type:luminance" maskUnits="userSpaceOnUse" x="0" y="0" width="100" height="100">
<path d="M100 0H0V100H100V0Z" fill="white"/>
</mask>
<g mask="url(#mask0_226_38)">
<path d="M41.6666 16.6667L35.3268 48.3659C34.2954 53.5221 38.2396 58.3334 43.4982 58.3334H66.6666M66.6666 58.3334V33.3334M66.6666 58.3334V83.3334" stroke="#9C3535" stroke-width="8.33333" stroke-linecap="round" stroke-linejoin="round"/>
</g>
</g>
<g clip-path="url(#clip1_226_38)">
<mask id="mask1_226_38" style="mask-type:luminance" maskUnits="userSpaceOnUse" x="62" y="0" width="100" height="100">
<path d="M162 0H62V100H162V0Z" fill="white"/>
</mask>
<g mask="url(#mask1_226_38)">
<path d="M112 83.3334C123.506 83.3334 132.833 74.0059 132.833 62.5V37.5C132.833 25.9941 123.506 16.6667 112 16.6667C100.494 16.6667 91.1667 25.9941 91.1667 37.5V62.5C91.1667 74.0059 100.494 83.3334 112 83.3334Z" stroke="#9C3535" stroke-width="8.33333" stroke-linejoin="round"/>
</g>
</g>
<g clip-path="url(#clip2_226_38)">
<mask id="mask2_226_38" style="mask-type:luminance" maskUnits="userSpaceOnUse" x="121" y="0" width="100" height="100">
<path d="M221 0H121V100H221V0Z" fill="white"/>
</mask>
<g mask="url(#mask2_226_38)">
<path d="M162.667 16.6667L156.327 48.3659C155.295 53.5221 159.24 58.3334 164.498 58.3334H187.667M187.667 58.3334V33.3334M187.667 58.3334V83.3334" stroke="#9C3535" stroke-width="8.33333" stroke-linecap="round" stroke-linejoin="round"/>
</g>
</g>
<defs>
<clipPath id="clip0_226_38">
<rect width="100" height="100" fill="white"/>
</clipPath>
<clipPath id="clip1_226_38">
<rect width="100" height="100" fill="white" transform="translate(62)"/>
</clipPath>
<clipPath id="clip2_226_38">
<rect width="100" height="100" fill="white" transform="translate(121)"/>
</clipPath>
</defs>
</svg>
